HIERARCHY
ROOT Hips
{
 OFFSET 0.000000 0.000000 0.000000
 CHANNELS 6 Xposition Yposition Zposition Yrotation Xrotation Zrotation
 JOINT Chest
 {
  OFFSET 0.000000 9.585900 0.002600
  CHANNELS 3 Yrotation Xrotation Zrotation
  JOINT Chest2
  {
   OFFSET 0.000000 9.601200 -0.005300
   CHANNELS 3 Yrotation Xrotation Zrotation
   JOINT Chest3
   {
    OFFSET 0.000000 9.561800 0.000000
    CHANNELS 3 Yrotation Xrotation Zrotation
    JOINT Chest4
    {
     OFFSET 0.000000 9.552100 0.000000
     CHANNELS 3 Yrotation Xrotation Zrotation
     JOINT Neck
     {
      OFFSET 0.000000 14.453000 0.000000
      CHANNELS 3 Yrotation Xrotation Zrotation
      JOINT Head
      {
       OFFSET 0.000000 8.936500 -0.011300
       CHANNELS 3 Yrotation Xrotation Zrotation
       End Site
       {
        OFFSET 0.000000 17.073600 -0.006000
       }
      }
     }
     JOINT RightCollar
     {
      OFFSET -2.921100 9.558500 0.000000
      CHANNELS 3 Yrotation Xrotation Zrotation
      JOINT RightShoulder
      {
       OFFSET -13.519700 0.000000 0.000000
       CHANNELS 3 Yrotation Xrotation Zrotation
       JOINT RightElbow
       {
        OFFSET 0.000000 -29.696600 0.000000
        CHANNELS 3 Yrotation Xrotation Zrotation
        JOINT RightWrist
        {
         OFFSET 0.000000 -24.004700 0.000000
         CHANNELS 3 Yrotation Xrotation Zrotation
         End Site
         {
          OFFSET 0.000000 -17.728500 0.000000
         }
        }
       }
      }
     }
     JOINT LeftCollar
     {
      OFFSET 2.921100 9.558500 0.000000
      CHANNELS 3 Yrotation Xrotation Zrotation
      JOINT LeftShoulder
      {
       OFFSET 13.519700 0.000000 0.000000
       CHANNELS 3 Yrotation Xrotation Zrotation
       JOINT LeftElbow
       {
        OFFSET 0.000000 -29.696600 0.000000
        CHANNELS 3 Yrotation Xrotation Zrotation
        JOINT LeftWrist
        {
         OFFSET 0.000000 -24.004700 0.000000
         CHANNELS 3 Yrotation Xrotation Zrotation
         End Site
         {
          OFFSET 0.000000 -17.728500 0.000000
         }
        }
       }
      }
     }
    }
   }
  }
 }
 JOINT RightHip
 {
  OFFSET -7.771700 -0.012900 -0.001300
  CHANNELS 3 Yrotation Xrotation Zrotation
  JOINT RightKnee
  {
   OFFSET 0.000000 -40.869800 0.001200
   CHANNELS 3 Yrotation Xrotation Zrotation
   JOINT RightAnkle
   {
    OFFSET 0.000000 -39.717900 0.002100
    CHANNELS 3 Yrotation Xrotation Zrotation
    JOINT RightToe
    {
     OFFSET 0.000000 -4.965400 11.033500
     CHANNELS 3 Yrotation Xrotation Zrotation
     End Site
     {
      OFFSET 0.000000 -1.423100 5.872300
     }
    }
   }
  }
 }
 JOINT LeftHip
 {
  OFFSET 7.771700 -0.012900 -0.001300
  CHANNELS 3 Yrotation Xrotation Zrotation
  JOINT LeftKnee
  {
   OFFSET 0.000000 -40.869800 0.001200
   CHANNELS 3 Yrotation Xrotation Zrotation
   JOINT LeftAnkle
   {
    OFFSET 0.000000 -39.717900 0.002100
    CHANNELS 3 Yrotation Xrotation Zrotation
    JOINT LeftToe
    {
     OFFSET 0.000000 -4.965400 11.033500
     CHANNELS 3 Yrotation Xrotation Zrotation
     End Site
     {
      OFFSET 0.000000 -1.423100 5.872300
     }
    }
   }
  }
 }
}
MOTION
Frames: 13
Frame Time: 0.008333
-55.615345 53.905986 47.126232 -178.886475 -31.012621 -10.597676 -0.182804 12.181319 5.055476 -0.167556 7.076866 2.049993 -0.169817 8.846573 2.564116 -0.155125 7.044577 2.027951 6.584391 21.761866 -3.090228 7.945299 -2.128610 -4.941197 0.543175 4.134222 -1.599510 -17.612295 -7.616721 5.901919 -44.512297 -61.361215 55.199858 4.922083 -5.392796 -7.819547 -8.413815 4.847340 -3.928263 8.545136 -3.096483 -1.538117 72.105542 -78.999881 -70.969045 22.775461 -8.860325 -14.882133 -16.401514 -34.951223 3.211209 -7.745174 86.460957 -11.001678 3.941881 -17.327935 2.395751 -0.037396 0.294790 -0.014731 -14.433693 -46.910154 15.144343 172.466204 79.378118 167.210480 -1.356063 -16.810795 2.381099 -0.692403 -2.268189 -0.318843
-55.610798 53.957733 47.128127 -178.887173 -31.008215 -10.615760 -0.194175 12.185087 5.070487 -0.167688 7.084445 2.055470 -0.169857 8.856127 2.571089 -0.167660 7.084406 2.055495 6.611119 21.779124 -3.128125 7.975676 -2.071246 -4.957218 0.571915 4.106872 -1.608587 -17.600400 -7.749102 6.004709 -46.014603 -60.335058 56.351377 4.702815 -5.246682 -7.510702 -8.415540 4.796790 -3.962583 8.556469 -3.145654 -1.543326 74.987621 -77.274507 -74.115404 23.282958 -8.337539 -14.643510 -16.424872 -34.982590 3.253451 -7.500230 86.511072 -10.763553 3.881085 -17.352604 2.401843 -0.031585 0.301256 -0.014988 -14.463897 -46.904513 15.163340 172.437857 79.385289 167.187522 -1.337694 -16.791252 2.370309 -0.696755 -2.284894 -0.323658
-55.604307 54.001928 47.134141 -178.883061 -31.003811 -10.640105 -0.211001 12.185399 5.088247 -0.159025 7.088412 2.058830 -0.178819 8.870191 2.580550 -0.159544 7.079651 2.050735 6.624084 21.802715 -3.131966 8.017169 -1.985194 -4.961963 0.582686 4.124481 -1.579721 -17.620962 -7.888687 6.097248 -47.234314 -59.384745 57.259508 4.539522 -5.125221 -7.213616 -8.417331 4.785564 -3.970449 8.552803 -3.180834 -1.538937 76.938927 -75.714209 -76.303855 23.726127 -7.946579 -14.212225 -16.451645 -35.015137 3.312315 -7.524114 86.560010 -10.792618 3.788311 -17.378534 2.418560 -0.015804 0.316418 -0.014255 -14.496136 -46.910172 15.182473 172.327059 79.382106 167.096155 -1.335375 -16.769511 2.353208 -0.696355 -2.299396 -0.326922
-55.595294 54.041629 47.141118 -178.894920 -31.021201 -10.666216 -0.207714 12.199546 5.117334 -0.153093 7.096660 2.060915 -0.183922 8.881046 2.591920 -0.156188 7.078424 2.043802 6.652662 21.866409 -3.121375 8.017951 -2.000410 -4.985179 0.593765 4.138123 -1.556337 -17.673518 -8.024702 6.180815 -48.264506 -58.493709 58.024265 4.413755 -5.020581 -6.952997 -8.448170 4.784218 -3.968443 8.581789 -3.313783 -1.522031 78.049704 -74.266975 -77.606355 24.114799 -7.667628 -13.689214 -16.465319 -35.027476 3.380309 -7.683333 86.601858 -10.968647 3.747801 -17.404289 2.428174 -0.025203 0.328137 -0.010600 -14.502912 -46.905169 15.200660 172.211634 79.367220 167.006626 -1.311211 -16.741065 2.342893 -0.718827 -2.327095 -0.333259
-55.582669 54.080224 47.145260 -178.924058 -31.083352 -10.703765 -0.176553 12.250629 5.169571 -0.153436 7.108995 2.062439 -0.180495 8.889501 2.605565 -0.160816 7.088668 2.042397 6.671797 21.887378 -3.132913 8.026630 -1.987334 -4.997940 0.607209 4.145560 -1.541114 -17.751248 -8.164294 6.247939 -49.173185 -57.637393 58.709453 4.312224 -4.932655 -6.750944 -8.483213 4.767079 -3.965428 8.607773 -3.418180 -1.539081 78.945905 -72.978241 -78.648430 24.453783 -7.455242 -13.162992 -16.456815 -34.991946 3.441178 -7.759950 86.639626 -11.044740 3.746967 -17.423679 2.418197 -0.046063 0.329313 -0.009864 -14.495835 -46.852948 15.237965 172.122658 79.351823 166.941520 -1.274784 -16.705189 2.335055 -0.753264 -2.365280 -0.347028
-55.575288 54.112271 47.153565 -178.935682 -31.124967 -10.719508 -0.171213 12.281874 5.191836 -0.158768 7.120135 2.074648 -0.172567 8.901442 2.609752 -0.160466 7.097577 2.048600 6.676496 21.893372 -3.158409 8.059657 -1.927917 -5.008016 0.614912 4.158610 -1.533126 -17.844481 -8.308318 6.295111 -50.020125 -56.789038 59.368080 4.218352 -4.862910 -6.612039 -8.537551 4.755030 -3.960447 8.623761 -3.509927 -1.588873 79.721742 -71.810782 -79.517476 24.753873 -7.277221 -12.685177 -16.448418 -34.988089 3.475645 -8.140598 86.682388 -11.430046 3.741534 -17.447800 2.421110 -0.045231 0.341846 -0.009892 -14.487757 -46.821544 15.249745 172.088940 79.343415 166.919038 -1.267493 -16.705288 2.329632 -0.760896 -2.362434 -0.349308
-55.569203 54.141048 47.162896 -178.948890 -31.168885 -10.731435 -0.166031 12.316226 5.212259 -0.149063 7.128453 2.074706 -0.177520 8.919004 2.629477 -0.157863 7.102628 2.051139 6.686900 21.912722 -3.175541 8.076174 -1.903067 -5.029587 0.624083 4.177745 -1.522358 -17.939936 -8.454218 6.320422 -50.855693 -55.930066 60.039907 4.106518 -4.807038 -6.517501 -8.550314 4.732577 -3.975973 8.571940 -3.591699 -1.626424 80.399913 -70.734993 -80.238687 25.022511 -7.106853 -12.272779 -16.432633 -34.985473 3.500611 -8.663056 86.723933 -11.948454 3.736422 -17.466731 2.424200 -0.031445 0.352661 -0.011737 -14.475402 -46.790346 15.256641 172.059633 79.334651 166.900055 -1.260757 -16.707813 2.324429 -0.767148 -2.356103 -0.351041
-55.563159 54.166075 47.175254 -178.955396 -31.195938 -10.754210 -0.164389 12.338794 5.241008 -0.150391 7.134389 2.083191 -0.177526 8.944381 2.642000 -0.153751 7.102652 2.058553 6.706730 21.954806 -3.175998 8.075892 -1.920744 -5.079860 0.635636 4.198759 -1.519215 -18.024242 -8.599354 6.326002 -51.701295 -55.038737 60.733295 3.960479 -4.768504 -6.455436 -8.570264 4.741058 -3.955213 8.515709 -3.700637 -1.718352 81.009390 -69.735877 -80.858840 25.278653 -6.927235 -11.920371 -16.433908 -34.996727 3.532853 -9.178578 86.760599 -12.454252 3.748525 -17.478486 2.418796 -0.066006 0.361181 -0.012546 -14.487009 -46.786933 15.273417 171.860895 79.310715 166.724583 -1.273063 -16.682919 2.306840 -0.768961 -2.371520 -0.350323
-55.560173 54.189517 47.186730 -178.971586 -31.231147 -10.763592 -0.145374 12.370332 5.260036 -0.180498 7.165650 2.112515 -0.153790 8.931262 2.620381 -0.164189 7.182675 2.119929 6.704469 21.906507 -3.247560 8.088049 -1.924852 -5.111996 0.653422 4.128883 -1.578486 -18.082269 -8.711815 6.325356 -52.556362 -54.099509 61.432466 3.786058 -4.759266 -6.418894 -8.557651 4.642402 -4.010420 8.442459 -3.779520 -1.751449 81.532133 -68.799532 -81.379629 25.559090 -6.736886 -11.615939 -16.425937 -35.004613 3.559557 -9.655578 86.800973 -12.922877 3.714574 -17.488045 2.422808 -0.078205 0.369722 -0.014693 -14.478547 -46.769932 15.279239 171.787609 79.297296 166.661937 -1.268736 -16.680049 2.303019 -0.770121 -2.367929 -0.354244
-55.560484 54.211099 47.198306 -178.985157 -31.262123 -10.765468 -0.148701 12.403940 5.271280 -0.174288 7.187185 2.119532 -0.151991 8.963426 2.637082 -0.158557 7.191821 2.119593 6.710226 21.888170 -3.267062 8.125844 -1.923630 -5.137273 0.662992 4.089819 -1.593393 -18.111919 -8.818162 6.309366 -53.411398 -53.131765 62.117368 3.596129 -4.783553 -6.392337 -8.550446 4.648215 -3.982535 8.392052 -3.913226 -1.823256 81.968833 -67.893634 -81.832631 25.871873 -6.539176 -11.341519 -16.426168 -35.019556 3.568519 -9.900006 86.844162 -13.156045 3.684542 -17.492998 2.413733 -0.040375 0.375606 -0.015952 -14.468065 -46.755547 15.277645 171.756890 79.290000 166.636074 -1.271310 -16.684059 2.299238 -0.762314 -2.355965 -0.351857
-55.561811 54.231361 47.210399 -178.993349 -31.284017 -10.774888 -0.170662 12.444302 5.290123 -0.152537 7.200897 2.119832 -0.148970 9.001583 2.652024 -0.152564 7.200929 2.119825 6.711800 21.849263 -3.290614 8.140620 -1.940757 -5.149049 0.688301 4.081364 -1.584309 -18.127812 -8.964234 6.277982 -54.240680 -52.189320 62.758471 3.397165 -4.833784 -6.355052 -8.543816 4.632407 -3.967391 8.383067 -4.031962 -1.858407 82.346262 -66.985371 -82.268321 26.191822 -6.337064 -11.084270 -16.430690 -35.037386 3.576901 -10.144440 86.880503 -13.396392 3.718106 -17.500192 2.396996 -0.002095 0.384410 -0.016055 -14.470577 -46.754094 15.277968 171.706195 79.277304 166.594329 -1.257908 -16.676334 2.294477 -0.768984 -2.354448 -0.353955
-55.564896 54.251703 47.220822 -179.014316 -31.312726 -10.776524 -0.160509 12.483184 5.305156 -0.145989 7.214278 2.123736 -0.145352 9.039386 2.662993 -0.148179 7.223719 2.126214 6.704245 21.778774 -3.325584 8.156293 -1.943165 -5.147287 0.699156 4.016530 -1.601616 -18.101976 -9.051980 6.255935 -55.004893 -51.329128 63.316544 3.210105 -4.897041 -6.289076 -8.541589 4.597685 -3.959249 8.390892 -4.110485 -1.881549 82.752562 -66.085243 -82.756235 26.491917 -6.151745 -10.822650 -16.431925 -35.049852 3.569195 -10.426497 86.913397 -13.674293 3.811019 -17.504503 2.359848 0.001622 0.391314 -0.014086 -14.460566 -46.739153 15.279759 171.680525 79.270516 166.571837 -1.256630 -16.683781 2.291213 -0.763276 -2.341587 -0.351953
-55.570190 54.271945 47.229997 -179.025894 -31.339715 -10.776284 -0.157832 12.523060 5.312976 -0.135057 7.209566 2.122071 -0.146080 9.095109 2.678263 -0.143942 7.246507 2.131800 6.710098 21.747072 -3.333727 8.145103 -1.988088 -5.174329 0.719301 3.968868 -1.606545 -18.065423 -9.151981 6.233813 -55.675436 -50.597403 63.768973 3.069845 -4.955547 -6.187563 -8.543015 4.562679 -3.946706 8.412921 -4.188301 -1.902173 83.108962 -65.189050 -83.208710 26.755233 -6.013654 -10.527594 -16.440750 -35.059532 3.557614 -10.336047 86.947080 -13.592957 3.888060 -17.512927 2.329837 -0.042204 0.400290 -0.011135 -14.450979 -46.723229 15.274150 171.659778 79.267271 166.551225 -1.266358 -16.693025 2.292196 -0.754934 -2.326664 -0.344448
